# Blender v2.82 (sub 7) OBJ File: 'projectile.blend'
# www.blender.org
mtllib projectile.mtl
o Sphere
v 0.000000 0.067888 0.058905
v 0.048004 0.048004 0.058905
v 0.048004 0.048004 -0.058905
v 0.000000 -0.000000 -0.117809
v 0.067888 -0.000000 0.058905
v 0.067888 -0.000000 -0.058905
v 0.048004 -0.048004 0.058905
v 0.048004 -0.048004 -0.058905
v 0.000000 -0.067888 0.058905
v 0.000000 -0.067888 -0.058905
v -0.000000 -0.000000 0.117809
v -0.048004 -0.048004 0.058905
v -0.048004 -0.048004 -0.058905
v -0.067888 -0.000000 0.058905
v -0.067888 -0.000000 -0.058905
v -0.048004 0.048004 0.058905
v -0.048004 0.048004 -0.058905
v 0.000000 0.067888 -0.058905
vt 0.687500 0.000000
vt 0.750000 0.333333
vt 0.625000 0.333333
vt 0.750000 0.666667
vt 0.625000 0.666667
vt 0.687500 1.000000
vt 0.562500 0.000000
vt 0.500000 0.333333
vt 0.500000 0.666667
vt 0.562500 1.000000
vt 0.437500 0.000000
vt 0.375000 0.333333
vt 0.375000 0.666667
vt 0.437500 1.000000
vt 0.312500 0.000000
vt 0.250000 0.333333
vt 0.250000 0.666667
vt 0.312500 1.000000
vt 0.187500 0.000000
vt 0.125000 0.333333
vt 0.125000 0.666667
vt 0.187500 1.000000
vt 0.062500 0.000000
vt 0.000000 0.333333
vt 0.000000 0.666667
vt 0.062500 1.000000
vt 0.937500 0.000000
vt 1.000000 0.333333
vt 0.875000 0.333333
vt 1.000000 0.666667
vt 0.875000 0.666667
vt 0.937500 1.000000
vt 0.812500 0.000000
vt 0.812500 1.000000
vn 0.0000 0.0000 -1.0000
vn 0.0000 0.9245 -0.3811
vn 0.6537 0.6537 -0.3811
vn 0.0000 0.9245 0.3811
vn 0.6537 0.6537 0.3811
vn 0.0000 0.0000 1.0000
vn 0.9245 0.0000 -0.3811
vn 0.9245 0.0000 0.3811
vn 0.6537 -0.6537 -0.3811
vn 0.6537 -0.6537 0.3811
vn 0.0000 -0.9245 -0.3811
vn 0.0000 -0.9245 0.3811
vn -0.6537 -0.6537 -0.3811
vn -0.6537 -0.6537 0.3811
vn -0.9245 0.0000 -0.3811
vn -0.9245 0.0000 0.3811
vn -0.6537 0.6537 -0.3811
vn -0.6537 0.6537 0.3811
usemtl None
s 1
f 4/1/1 18/2/2 3/3/3
f 18/2/2 1/4/4 2/5/5 3/3/3
f 1/4/4 11/6/6 2/5/5
f 4/7/1 3/3/3 6/8/7
f 3/3/3 2/5/5 5/9/8 6/8/7
f 2/5/5 11/10/6 5/9/8
f 4/11/1 6/8/7 8/12/9
f 6/8/7 5/9/8 7/13/10 8/12/9
f 5/9/8 11/14/6 7/13/10
f 4/15/1 8/12/9 10/16/11
f 8/12/9 7/13/10 9/17/12 10/16/11
f 7/13/10 11/18/6 9/17/12
f 4/19/1 10/16/11 13/20/13
f 10/16/11 9/17/12 12/21/14 13/20/13
f 9/17/12 11/22/6 12/21/14
f 4/23/1 13/20/13 15/24/15
f 13/20/13 12/21/14 14/25/16 15/24/15
f 12/21/14 11/26/6 14/25/16
f 4/27/1 15/28/15 17/29/17
f 15/28/15 14/30/16 16/31/18 17/29/17
f 14/30/16 11/32/6 16/31/18
f 4/33/1 17/29/17 18/2/2
f 17/29/17 16/31/18 1/4/4 18/2/2
f 16/31/18 11/34/6 1/4/4
